<?xml version="1.0" encoding="UTF-8"?>
<svg version="1.1" xmlns="http://www.w3.org/2000/svg" width="519" height="204">
<path d="M0 0 C147.51 0 295.02 0 447 0 C447 30.36 447 60.72 447 92 C299.49 92 151.98 92 0 92 C0 61.64 0 31.28 0 0 Z " fill="#E6E8F6" transform="translate(0,112)"/>
<path d="M0 0 C0.99 0.66 1.98 1.32 3 2 C5.78855122 1.60428244 5.78855122 1.60428244 8 0 C12.35352754 -0.51916001 16.97290817 -0.99367246 20.9921875 0.9765625 C23.73793191 3.20321095 25.9106728 5.62308568 27 9 C27 10.32 27 11.64 27 13 C28.0725 13.226875 29.145 13.45375 30.25 13.6875 C34.58579037 15.20502663 35.76638117 16.02912208 38 20 C38.64057925 22.59087787 39.11987223 25.1525998 39.5078125 27.79296875 C39.83611642 30.19361177 39.83611642 30.19361177 42 32 C42.23046875 34.42578125 42.23046875 34.42578125 42.1875 37.3125 C42.18105469 38.25738281 42.17460938 39.20226562 42.16796875 40.17578125 C42 43 42 43 41.42578125 45.79296875 C41.28527344 46.52128906 41.14476563 47.24960938 41 48 C41.33 48.33 41.66 48.66 42 49 C42.65152719 54.02606688 42.90219016 57.7884875 39.8125 61.9375 C38.884375 62.618125 37.95625 63.29875 37 64 C35.7934375 64.8971875 35.7934375 64.8971875 34.5625 65.8125 C31.52735777 67.21902933 29.30759666 67.23076256 26 67 C25.938125 67.86625 25.87625 68.7325 25.8125 69.625 C24.75773272 74.00634099 23.09217359 75.75698868 20 79 C17.6603331 80.16983345 16.16608473 80.1661241 13.5625 80.1875 C12.38880859 80.20876953 12.38880859 80.20876953 11.19140625 80.23046875 C9 80 9 80 6 78 C4.05845576 78.31565845 4.05845576 78.31565845 2 79 C-1.44210713 79.49984394 -4.57505557 79.67959527 -8 79 C-11.18666128 76.56051181 -13.21886097 73.56227806 -15 70 C-15.039992 68.00039988 -15.04346799 65.99952758 -15 64 C-15.59167969 63.96261719 -16.18335937 63.92523438 -16.79296875 63.88671875 C-21.59711159 63.48702661 -25.06279913 63.01080066 -29 60 C-29.5775 59.608125 -30.155 59.21625 -30.75 58.8125 C-32.79717051 55.84410277 -33.03464784 52.52022062 -33 49 C-32.36096883 47.32254318 -31.69658363 45.65438613 -31 44 C-31.27954633 41.15118325 -31.27954633 41.15118325 -32 38 C-33.42038032 30.20859341 -33.42038032 30.20859341 -32 26.125 C-29.33393854 23.2923097 -26.64614909 22.25957878 -23 21 C-22.34 21 -21.68 21 -21 21 C-21.05220703 20.02160156 -21.05220703 20.02160156 -21.10546875 19.0234375 C-21.27536512 13.53821187 -21.1663633 9.69495248 -18 5 C-17.38125 4.05125 -16.7625 3.1025 -16.125 2.125 C-11.19130128 -1.22991513 -5.79948509 -0.7268484 0 0 Z " fill="#353F5D" transform="translate(38,118)"/>
<path d="M0 0 C-0.33 1.32 -0.66 2.64 -1 4 C-2.37285156 4.16435547 -2.37285156 4.16435547 -3.7734375 4.33203125 C-4.96195313 4.49058594 -6.15046875 4.64914063 -7.375 4.8125 C-9.15003906 5.03873047 -9.15003906 5.03873047 -10.9609375 5.26953125 C-14.29532084 5.70699334 -14.29532084 5.70699334 -16 9 C-16.72412023 15.51708204 -16.73013413 21.4047988 -13 27 C-12.34 27.99 -11.68 28.98 -11 30 C-8.3443272 30.58348752 -8.3443272 30.58348752 -5.375 30.6875 C-4.37210938 30.75324219 -3.36921875 30.81898438 -2.3359375 30.88671875 C-1.56507812 30.92410156 -0.79421875 30.96148437 0 31 C-0.66 30.01 -1.32 29.02 -2 28 C-2 26.68 -2 25.36 -2 24 C-3.32 23.67 -4.64 23.34 -6 23 C-6.625 20.625 -6.625 20.625 -7 18 C-5 16 -5 16 -2.5 15.75 C0 16 0 16 2 18 C1.7525 19.175625 1.505 20.35125 1.25 21.5625 C0.53902849 26.41555726 2.18958437 29.20040582 4.94580078 33.11694336 C8.18545554 36.08669106 11.0476284 35.88926826 15.29882812 35.7421875 C16.29333984 35.66226563 17.28785156 35.58234375 18.3125 35.5 C20.3084658 35.40356427 22.30455659 35.30966981 24.30078125 35.21875 C25.17903564 35.15623047 26.05729004 35.09371094 26.9621582 35.02929688 C27.634646 35.01962891 28.30713379 35.00996094 29 35 C29.33 35.33 29.66 35.66 30 36 C29.71269945 38.33944736 29.38063221 40.6739143 29 43 C26.625 43.1875 26.625 43.1875 24 43 C23.34 42.01 22.68 41.02 22 40 C19.44314972 39.48306529 19.44314972 39.48306529 16.5625 39.5625 C15.11037109 39.53349609 15.11037109 39.53349609 13.62890625 39.50390625 C10.91889983 39.77299236 10.91889983 39.77299236 9.1796875 41.6953125 C7.7949566 44.40058148 7.63528606 46.28545641 7.5625 49.3125 C7.1803008 54.71376801 6.3811972 57.72901406 3 62 C-2.14192137 65.0653762 -6.20102029 65.30520946 -12 65 C-10.02126354 70.76380936 -10.02126354 70.76380936 -6 75 C-2.6288837 75.8344592 -2.6288837 75.8344592 1 75 C4.44939901 72.25738208 6.61878075 69.27980747 7.875 65.0625 C7.91625 64.381875 7.9575 63.70125 8 63 C8.33 64.32 8.66 65.64 9 67 C9.66 67 10.32 67 11 67 C10.34 69.64 9.68 72.28 9 75 C10.43655854 75.08131463 11.8744483 75.13933559 13.3125 75.1875 C14.11300781 75.22230469 14.91351563 75.25710937 15.73828125 75.29296875 C18.05970424 75.1781049 18.05970424 75.1781049 19.78125 73.6875 C21.59219053 71.18004388 21.20005332 69.00079974 21 66 C18.36 65.01 15.72 64.02 13 63 C13 62.01 13 61.02 13 60 C14.65 60 16.3 60 18 60 C18 60.66 18 61.32 18 62 C19.1446875 62.185625 19.1446875 62.185625 20.3125 62.375 C23 63 23 63 26 65 C27.9896995 65.39013716 29.99019869 65.73202649 32 66 C32 66.33 32 66.66 32 67 C30.02 67 28.04 67 26 67 C25.938125 67.86625 25.87625 68.7325 25.8125 69.625 C24.75773272 74.00634099 23.09217359 75.75698868 20 79 C17.6603331 80.16983345 16.16608473 80.1661241 13.5625 80.1875 C12.38880859 80.20876953 12.38880859 80.20876953 11.19140625 80.23046875 C9 80 9 80 6 78 C4.05845576 78.31565845 4.05845576 78.31565845 2 79 C-1.44210713 79.49984394 -4.57505557 79.67959527 -8 79 C-11.18666128 76.56051181 -13.21886097 73.56227806 -15 70 C-15.039992 68.00039988 -15.04346799 65.99952758 -15 64 C-15.59167969 63.96261719 -16.18335937 63.92523438 -16.79296875 63.88671875 C-21.59711159 63.48702661 -25.06279913 63.01080066 -29 60 C-29.5775 59.608125 -30.155 59.21625 -30.75 58.8125 C-32.79717051 55.84410277 -33.03464784 52.52022062 -33 49 C-32.36096883 47.32254318 -31.69658363 45.65438613 -31 44 C-31.27954633 41.15118325 -31.27954633 41.15118325 -32 38 C-33.42038032 30.20859341 -33.42038032 30.20859341 -32 26.125 C-29.33393854 23.2923097 -26.64614909 22.25957878 -23 21 C-22.34 21 -21.68 21 -21 21 C-21.05220703 20.02160156 -21.05220703 20.02160156 -21.10546875 19.0234375 C-21.27536512 13.53821187 -21.1663633 9.69495248 -18 5 C-17.38125 4.05125 -16.7625 3.1025 -16.125 2.125 C-11.13904202 -1.26545143 -5.85234467 -0.3855864 0 0 Z " fill="#3E4963" transform="translate(38,118)"/>
<path d="M0 0 C1.9140625 1.10546875 1.9140625 1.10546875 4.7890625 3.10546875 C4.7890625 3.76546875 4.7890625 4.42546875 4.7890625 5.10546875 C5.4490625 5.10546875 6.1090625 5.10546875 6.7890625 5.10546875 C6.7890625 3.78546875 6.7890625 2.46546875 6.7890625 1.10546875 C8.7690625 1.10546875 10.7490625 1.10546875 12.7890625 1.10546875 C12.86342501 6.69219069 12.91776504 12.27862214 12.95385742 17.86572266 C12.96890941 19.76486228 12.98935566 21.66396734 13.01538086 23.56298828 C13.05192242 26.29858956 13.06882488 29.03372975 13.08203125 31.76953125 C13.09751511 32.61351471 13.11299896 33.45749817 13.12895203 34.32705688 C13.13066181 40.36640482 12.11186295 44.65387937 7.81640625 49.1875 C7.12675781 49.75855469 6.43710937 50.32960937 5.7265625 50.91796875 C4.68822266 51.79388672 4.68822266 51.79388672 3.62890625 52.6875 C-0.64938331 55.98478049 -4.99854339 55.51757604 -10.2109375 55.10546875 C-16.4056916 53.84298 -19.68038954 51.29096107 -23.2109375 46.10546875 C-23.2109375 45.44546875 -23.2109375 44.78546875 -23.2109375 44.10546875 C-20.56354834 42.64484025 -19.31645416 42.10546875 -16.2109375 42.10546875 C-15.6953125 42.93046875 -15.1796875 43.75546875 -14.6484375 44.60546875 C-11.84889492 47.47679447 -11.18657426 47.53518817 -7.3359375 47.66796875 C-2.62525069 47.41784379 0.25404139 46.37536327 3.7890625 43.10546875 C5.72184047 39.60806099 6.23991571 36.04102077 6.7890625 32.10546875 C5.1390625 32.76546875 3.4890625 33.42546875 1.7890625 34.10546875 C1.7890625 35.09546875 1.7890625 36.08546875 1.7890625 37.10546875 C-11.2988468 38.8892068 -11.2988468 38.8892068 -17.2109375 35.10546875 C-21.67175015 30.90340393 -24.70308782 26.68179964 -25.58203125 20.4921875 C-25.7497097 13.67655157 -24.71405032 9.30797512 -20.2109375 4.10546875 C-14.62531001 -1.08118535 -7.29688277 -2.95227236 0 0 Z " fill="#2E3A5B" transform="translate(420.2109375,146.89453125)"/>
<path d="M0 0 C2.31 0 4.62 0 7 0 C7.33 6.27 7.66 12.54 8 19 C10.97 16.525 10.97 16.525 14 14 C18.84398919 12.65285508 23.25160817 13.18815932 27.79296875 15.296875 C33.29758479 18.8419453 37.2498681 22.5787414 39 29 C39.9659115 34.27141061 38.91110303 38.44716224 36.34765625 43.10546875 C33.67202206 46.86686753 30.13017154 49.93491423 26 52 C23.89946284 52.14901491 21.79312175 52.22138453 19.6875 52.25 C18.55699219 52.27578125 17.42648437 52.3015625 16.26171875 52.328125 C12.72223663 51.97205734 10.86740379 51.04430289 8 49 C7.67 49.99 7.34 50.98 7 52 C4.69 52 2.38 52 0 52 C0 34.84 0 17.68 0 0 Z " fill="#303C5C" transform="translate(294,132)"/>
<path d="M0 0 C3.97916335 2.03535966 6.31861189 4.69916814 8.375 8.625 C9.14952395 12.80742932 9.39106106 16.94754817 9.55859375 21.1953125 C10.04553937 24.28935632 10.9329119 25.6958858 13 28 C18.3086849 27.41825155 18.3086849 27.41825155 23 25 C25.8125 24.69921875 25.8125 24.69921875 29 24.6875 C30.051875 24.67074219 31.10375 24.65398437 32.1875 24.63671875 C35 25 35 25 36.8125 26.39453125 C39.49122609 30.01609843 39.59075439 33.63812857 39 38 C36.17884131 43.54156171 36.17884131 43.54156171 32.75 44.875 C32.1725 44.91625 31.595 44.9575 31 45 C31 45.66 31 46.32 31 47 C28.11138291 48.44430855 26.20352299 48.37688506 23 48 C20.25 45.625 20.25 45.625 18 43 C16.16116119 40.71271266 16.16116119 40.71271266 13.375 40.875 C12.59125 40.91625 11.8075 40.9575 11 41 C9.22529688 44.54940624 9.6317873 48.8640611 9.48242188 52.79492188 C9.13111868 59.89389777 8.14926544 65.95633721 2.7109375 70.890625 C-0.34314699 72.87089896 -2.51707547 72.69658491 -6 72 C-9.46991083 69.4352833 -10.78073813 67.89391378 -11.8125 63.6875 C-11.874375 62.800625 -11.93625 61.91375 -12 61 C-10.87851562 60.80083984 -10.87851562 60.80083984 -9.734375 60.59765625 C-8.74953125 60.42105469 -7.7646875 60.24445313 -6.75 60.0625 C-5.77546875 59.88847656 -4.8009375 59.71445313 -3.796875 59.53515625 C-2.87390625 59.35855469 -1.9509375 59.18195313 -1 59 C0.13115234 58.79503906 0.13115234 58.79503906 1.28515625 58.5859375 C1.85105469 58.39257812 2.41695312 58.19921875 3 58 C4.24714403 55.59047977 4.24714403 55.59047977 5 53 C5.33 52.34 5.66 51.68 6 51 C6.12820691 49.23074468 6.22858012 47.45940825 6.3125 45.6875 C6.63003707 42.27956689 7.00771027 39.9821262 8.375 36.8125 C12.05782472 34.26959722 15.15021222 34.48418458 19.5390625 34.53125 C20.75722656 34.76328125 20.75722656 34.76328125 22 35 C22.66 35.99 23.32 36.98 24 38 C26.56282742 38.72965366 26.56282742 38.72965366 29 39 C29 36.69 29 34.38 29 32 C28.3702124 32.05236816 27.7404248 32.10473633 27.09155273 32.15869141 C9.27886188 33.45124452 9.27886188 33.45124452 3.9453125 30.0546875 C0.95093838 25.99178153 -0.45366596 22.49853085 0.125 17.4375 C0.558125 15.7359375 0.558125 15.7359375 1 14 C-0.06645115 12.70366379 -0.06645115 12.70366379 -2.5625 12.9375 C-3.366875 12.958125 -4.17125 12.97875 -5 13 C-5.33 14.65 -5.66 16.3 -6 18 C-5.401875 18.165 -4.80375 18.33 -4.1875 18.5 C-0.81472202 20.81276204 -0.1668452 24.19891337 1 28 C-9.61976923 28.11856202 -9.61976923 28.11856202 -12.875 25.48046875 C-16.13964673 20.86526876 -17.16633724 16.70276442 -17.25 11.0625 C-17.28867187 9.50208984 -17.28867187 9.50208984 -17.328125 7.91015625 C-16.95851611 4.63207737 -16.30497254 3.32112889 -14 1 C-9.33259931 -0.55580023 -4.86438807 -0.71235809 0 0 Z " fill="#D6DCEC" transform="translate(38,122)"/>
<path d="M0 0 C4.43685623 2.30599765 7.83375461 4.71422624 10.5 9.046875 C12.26082552 14.73009115 12.78727526 21.10707683 10.37109375 26.625 C7.00758048 31.92933946 3.48427123 35.50457646 -2.4375 37.796875 C-8.8447227 38.57350805 -13.32436942 38.09478791 -18.5 34.046875 C-23.1768599 29.61673019 -26.3179326 25.36551379 -26.59765625 18.73046875 C-26.34170857 12.02463953 -24.27378567 7.73425731 -19.5 3.046875 C-13.87883306 -1.8065228 -6.91234907 -2.63533308 0 0 Z " fill="#323D5E" transform="translate(378.5,146.953125)"/>
<path d="M0 0 C1.04929687 -0.01417969 2.09859375 -0.02835938 3.1796875 -0.04296875 C6.06047071 0.18245063 7.68740208 0.69785683 10.125 2.1875 C10.125 2.8475 10.125 3.5075 10.125 4.1875 C10.7025 4.414375 11.28 4.64125 11.875 4.875 C15.26722063 6.85379537 17.37993471 9.69736942 19.125 13.1875 C19.98517829 20.00050303 20.21812461 25.67618951 15.9375 31.3125 C9.86365732 37.90661207 9.86365732 37.90661207 4.83984375 38.421875 C-1.6184705 38.61669594 -7.33894758 38.19275075 -12.5625 34.0625 C-16.88755767 28.68540127 -19.72458887 23.5578655 -19.39453125 16.4921875 C-17.94743821 10.0727522 -13.24442649 4.76711766 -7.875 1.1875 C-5.17835792 -0.16082104 -3.00912479 0.01839318 0 0 Z " fill="#303B5C" transform="translate(267.875,145.8125)"/>
<path d="M0 0 C10 0 10 0 12.02978516 1.72607422 C12.40409668 2.5357666 12.7784082 3.34545898 13.1640625 4.1796875 C13.62200195 5.09331055 14.07994141 6.00693359 14.55175781 6.94824219 C15.02967773 7.95532227 15.50759766 8.96240234 16 10 C17.20310944 12.15576484 18.41980919 14.30398888 19.6484375 16.4453125 C20.89248529 18.67083613 22.13433155 20.89759071 23.375 23.125 C25.56125 27.04375 27.7475 30.9625 30 35 C30.33 23.45 30.66 11.9 31 0 C33.31 0 35.62 0 38 0 C38 16.5 38 33 38 50 C35.03 50 32.06 50 29 50 C28.61255615 49.27522461 28.2251123 48.55044922 27.82592773 47.80371094 C26.35342736 45.05177475 24.8788906 42.30094141 23.40307617 39.55078125 C22.46446629 37.80029162 21.52809814 36.04860055 20.59179688 34.296875 C19.98271484 33.1625 19.37363281 32.028125 18.74609375 30.859375 C18.19622803 29.83295898 17.6463623 28.80654297 17.07983398 27.74902344 C14.14019783 22.45015587 11.05328622 17.23420495 8 12 C7.67 24.87 7.34 37.74 7 51 C4.69 51 2.38 51 0 51 C0 34.17 0 17.34 0 0 Z " fill="#2A3558" transform="translate(104,133)"/>
<path d="M0 0 C0.61875 0.33 1.2375 0.66 1.875 1 C1.875 1.66 1.875 2.32 1.875 3 C2.47828125 3.25523437 3.0815625 3.51046875 3.703125 3.7734375 C6.13071018 5.14441186 7.12307706 6.29794656 8.625 8.625 C9.05296875 9.25664062 9.4809375 9.88828125 9.921875 10.5390625 C10.875 13 10.875 13 10.875 21 C1.305 21 -8.265 21 -18.125 21 C-15.829493 26.6182603 -15.829493 26.6182603 -13.4375 28.375 C-9.97028944 29.31208393 -6.65575672 29.61312542 -3.125 29 C-1.4175002 27.71937515 0.25763741 26.3927289 1.875 25 C4.0625 25 4.0625 25 5.875 26 C6.58307934 27.31181015 7.25464074 28.64450134 7.875 30 C6.75220538 30.98169476 5.62668527 31.96027298 4.5 32.9375 C3.87351563 33.48277344 3.24703125 34.02804688 2.6015625 34.58984375 C-1.33098157 37.80171798 -5.24868952 37.40951908 -10.125 37 C-14.89629902 36.09044704 -18.79555463 34.84222817 -22.0625 31.125 C-26.03731869 25.10254744 -26.99985818 20.1738371 -26.125 13 C-24.31315812 7.07033568 -21.13226106 3.51573649 -16.125 0 C-10.89155404 -1.74448199 -5.24542565 -1.67853621 0 0 Z " fill="#333F5F" transform="translate(173.125,147)"/>
<path d="M0 0 C2.375 3 2.375 3 4 6 C3.690625 6.598125 3.38125 7.19625 3.0625 7.8125 C1.89790296 10.08956772 1.89790296 10.08956772 1 13 C4.18234105 11.24545615 4.18234105 11.24545615 7 9 C12.45155049 8.41429623 16.52115264 8.57499908 21 12 C21.99 12.66 22.98 13.32 24 14 C23.690625 14.94875 23.38125 15.8975 23.0625 16.875 C22.14593891 19.98498661 21.82339208 22.89266075 21.625 26.125 C21.25666889 30.52488253 20.30741502 32.89303437 17 36 C14.426671 37.2866645 12.49776962 37.16824551 9.625 37.1875 C8.66851563 37.20167969 7.71203125 37.21585938 6.7265625 37.23046875 C3.91898107 36.9931517 2.44842504 36.30213981 0 35 C-2.02864585 34.69863592 -2.02864585 34.69863592 -4.0625 34.625 C-8 34 -8 34 -10 32.4375 C-11.48982391 28.80605421 -11.25285823 25.9193025 -11 22 C-10.67 21.34 -10.34 20.68 -10 20 C-7.46627181 21.16941301 -5.56661971 22.35083166 -3.375 24.125 C1.07829209 26.59905116 4.9919956 26.74128809 10 26 C10.99 25.34 11.98 24.68 13 24 C13.99 24 14.98 24 16 24 C15.67 23.01 15.34 22.02 15 21 C14.505 21.33 14.01 21.66 13.5 22 C8.86438429 23.85424628 4.27191779 23.15620043 -0.5625 22.5625 C-5.62182675 20.26280602 -8.41806621 16.8837164 -11 12 C-11.79140454 8.78901471 -11.93686478 6.18665979 -11 3 C-7.74395241 -0.16028148 -4.42500171 -0.84734075 0 0 Z " fill="#DCE0EF" transform="translate(20,143)"/>
<path d="M0 0 C2.31 0 4.62 0 7 0 C7 12.21 7 24.42 7 37 C4.69 37 2.38 37 0 37 C-0.33 35.68 -0.66 34.36 -1 33 C-1.598125 33.66 -2.19625 34.32 -2.8125 35 C-7.43954617 37.90324465 -11.67145472 37.93750345 -17 37 C-20.44242292 34.47087295 -22.42314702 31.93133208 -24 28 C-24.22705078 25.06738281 -24.22705078 25.06738281 -24.1953125 21.703125 C-24.18886719 20.49785156 -24.18242187 19.29257813 -24.17578125 18.05078125 C-24.15064453 16.16939453 -24.15064453 16.16939453 -24.125 14.25 C-24.11597656 12.98027344 -24.10695312 11.71054688 -24.09765625 10.40234375 C-24.07409005 7.26803907 -24.04118832 4.13411459 -24 1 C-22.02 1 -20.04 1 -18 1 C-17.98541748 1.6705542 -17.97083496 2.3411084 -17.95581055 3.03198242 C-17.881117 6.08438822 -17.78452701 9.13572585 -17.6875 12.1875 C-17.66494141 13.24259766 -17.64238281 14.29769531 -17.61914062 15.38476562 C-17.58369141 16.40634766 -17.54824219 17.42792969 -17.51171875 18.48046875 C-17.48553467 19.41785889 -17.45935059 20.35524902 -17.43237305 21.32104492 C-16.91447606 24.52990075 -16.00095862 26.44329871 -14 29 C-9.44174634 29.65117909 -7.27045758 29.94469923 -3.5625 27.1875 C-1.14195189 23.79873264 -0.84757043 20.94709788 -0.68359375 16.89453125 C-0.64169922 15.91162109 -0.59980469 14.92871094 -0.55664062 13.91601562 C-0.51732422 12.89185547 -0.47800781 11.86769531 -0.4375 10.8125 C-0.39431641 9.77673828 -0.35113281 8.74097656 -0.30664062 7.67382812 C-0.20055634 5.1160181 -0.09849854 2.55811155 0 0 Z " fill="#374161" transform="translate(213,147)"/>
<path d="M0 0 C3.97916335 2.03535966 6.31861189 4.69916814 8.375 8.625 C9.15506397 12.83734546 9.44109445 17.01675226 9.65625 21.29296875 C9.82342526 24.21772585 9.82342526 24.21772585 12 27 C12 27.99 12 28.98 12 30 C12.66 30.33 13.32 30.66 14 31 C8.99442006 31.77672792 8.99442006 31.77672792 6 31 C3.13236295 28.40322805 1.39827945 25.59557574 0 22 C-0.137258 19.05875724 0.32527777 16.90649574 1 14 C-0.06645115 12.70366379 -0.06645115 12.70366379 -2.5625 12.9375 C-3.366875 12.958125 -4.17125 12.97875 -5 13 C-5.33 14.65 -5.66 16.3 -6 18 C-5.401875 18.165 -4.80375 18.33 -4.1875 18.5 C-0.81472202 20.81276204 -0.1668452 24.19891337 1 28 C-9.61976923 28.11856202 -9.61976923 28.11856202 -12.875 25.48046875 C-16.13964673 20.86526876 -17.16633724 16.70276442 -17.25 11.0625 C-17.28867187 9.50208984 -17.28867187 9.50208984 -17.328125 7.91015625 C-16.95851611 4.63207737 -16.30497254 3.32112889 -14 1 C-9.33259931 -0.55580023 -4.86438807 -0.71235809 0 0 Z " fill="#DEE4F3" transform="translate(38,122)"/>
<path d="M0 0 C3.31805122 2.4244894 5.18478067 5.36956135 7 9 C7.04454997 13.53518731 6.58326225 17.08622248 4.125 20.9375 C0.81561826 24.14954698 -1.32477735 25.31994106 -5.875 25.4375 C-9.82212181 25.36845414 -10.74458966 25.19687881 -14 22.6875 C-17.52313377 17.953289 -18.59307183 15.42374946 -18.421875 9.5859375 C-17.83113418 5.96491508 -16.69685927 3.82185927 -14.109375 1.234375 C-9.65407071 -1.37280307 -4.9024416 -1.20716756 0 0 Z " fill="#DDE1F0" transform="translate(319,153)"/>
<path d="M0 0 C4.41884299 2.16925019 7.05081082 4.45189192 9 9 C9.70720269 13.64733198 8.5377381 16.46461876 6.265625 20.38671875 C4.08141668 23.17091022 2.10847428 24.78371234 -1.40234375 25.46875 C-8.28187892 25.55355167 -8.28187892 25.55355167 -12 22.6875 C-15.52445417 17.95151471 -16.58375015 15.42319999 -16.4296875 9.5859375 C-15.82434244 5.94286085 -14.56948121 3.82171932 -11.9765625 1.22265625 C-8.1388936 -1.15123775 -4.30536769 -0.88207533 0 0 Z " fill="#E0E3F2" transform="translate(418,153)"/>
<path d="M0 0 C2.765601 2.25107058 4.44343471 3.84514093 5.09375 7.421875 C5.27728424 12.34671051 5.07796788 15.40311955 1.8125 19.25 C-0.99645138 22.13358535 -2.49789299 23.12602023 -6.625 23.4375 C-10.6301703 23.16596303 -12.22513691 22.69076737 -15.3125 20.1875 C-18.57906475 16.39122205 -20.03448329 13.32153002 -19.76953125 8.21875 C-18.956645 4.60592223 -17.04416686 1.66756597 -14.3125 -0.8125 C-9.24413266 -2.54907208 -4.73408438 -2.59034806 0 0 Z " fill="#E0E4F2" transform="translate(275.3125,154.8125)"/>
<path d="M0 0 C3.70480576 0.94403939 5.49330163 2.36533968 7.67578125 5.46875 C9.44909518 9.53439656 9.37016886 13.35185382 8.63671875 17.671875 C7.32750848 20.91044778 6.11638262 22.27443922 3.44921875 24.484375 C-0.26051285 26.05070612 -3.40010394 26.54634125 -7.36328125 25.671875 C-10.77107333 22.93082485 -13.96115463 19.88357141 -14.76953125 15.4375 C-14.94071719 10.84401055 -14.76358634 7.37763723 -12.05078125 3.546875 C-8.48297581 -0.01245584 -4.89562326 -0.34730206 0 0 Z " fill="#E2E5F3" transform="translate(374.36328125,152.328125)"/>
<path d="M0 0 C-0.33 1.32 -0.66 2.64 -1 4 C-2.37285156 4.16435547 -2.37285156 4.16435547 -3.7734375 4.33203125 C-4.96195313 4.49058594 -6.15046875 4.64914063 -7.375 4.8125 C-9.15003906 5.03873047 -9.15003906 5.03873047 -10.9609375 5.26953125 C-14.29532084 5.70699334 -14.29532084 5.70699334 -16 9 C-16.72412023 15.51708204 -16.73013413 21.4047988 -13 27 C-12.34 27.99 -11.68 28.98 -11 30 C-8.3443272 30.58348752 -8.3443272 30.58348752 -5.375 30.6875 C-4.37210938 30.75324219 -3.36921875 30.81898438 -2.3359375 30.88671875 C-1.56507812 30.92410156 -0.79421875 30.96148437 0 31 C-0.66 30.01 -1.32 29.02 -2 28 C-2 26.68 -2 25.36 -2 24 C-3.32 23.67 -4.64 23.34 -6 23 C-6.625 20.625 -6.625 20.625 -7 18 C-5 16 -5 16 -2.5 15.75 C0 16 0 16 2 18 C1.7525 19.175625 1.505 20.35125 1.25 21.5625 C0.60005402 26.29410674 1.80872584 29.36208858 4.56640625 33.2109375 C9.75395051 37.02457357 16.80824208 36.18384079 23 36 C23 36.33 23 36.66 23 37 C17.72 37 12.44 37 7 37 C6.67 38.32 6.34 39.64 6 41 C5.608125 40.566875 5.21625 40.13375 4.8125 39.6875 C0.3803026 35.56097139 -2.99540653 34.66216307 -8.9140625 34.6015625 C-11.49160674 35.09390241 -12.2225458 36.14398429 -14 38 C-14.99 38 -15.98 38 -17 38 C-16.835 37.4225 -16.67 36.845 -16.5 36.25 C-15.52998092 31.88491412 -16.23537253 28.97041182 -18 25 C-19.60875 25.4640625 -19.60875 25.4640625 -21.25 25.9375 C-23.82866222 26.66812096 -26.39512102 27.37482904 -29 28 C-29 30.31 -29 32.62 -29 35 C-29.33 35 -29.66 35 -30 35 C-30.54372951 31.94152152 -31 29.11227195 -31 26 C-28.7273505 23.02807373 -27.43481784 22.10034258 -23.75 21.25 C-22.8425 21.1675 -21.935 21.085 -21 21 C-21.05220703 20.02160156 -21.05220703 20.02160156 -21.10546875 19.0234375 C-21.27536512 13.53821187 -21.1663633 9.69495248 -18 5 C-17.38125 4.05125 -16.7625 3.1025 -16.125 2.125 C-11.13904202 -1.26545143 -5.85234467 -0.3855864 0 0 Z " fill="#4A536F" transform="translate(38,118)"/>
<path d="M0 0 C3 1 3 1 5.125 4.0625 C6.74284899 6.09092093 7.57308759 6.89189094 10.11328125 7.53515625 C15.6286242 7.74835438 18.5278716 6.30085668 23 3 C23.99 3.33 24.98 3.66 26 4 C26.34751969 6.91916538 26.53280018 9.13195476 24.95703125 11.69921875 C23.15362765 13.88339965 21.55587616 15.72206192 19 17 C13.97106679 17.42484112 9.5683532 17.35785972 5 15 C5 14.34 5 13.68 5 13 C3.35 13 1.7 13 0 13 C0 13.99 0 14.98 0 16 C0.928125 16.12375 1.85625 16.2475 2.8125 16.375 C6 17 6 17 9 19 C9.53245789 22.499009 9.40539457 24.33021766 7.5625 27.375 C3.79880462 29.76173366 0.34043107 29.33387931 -4 29 C-5 26 -5 26 -3.625 22.875 C-1.46516249 17.66193766 -1.49053382 12.29271757 -1.29150391 6.72802734 C-1.08414691 1.08414691 -1.08414691 1.08414691 0 0 Z " fill="#D9E0F1" transform="translate(51,165)"/>
<path d="M0 0 C2.31 0 4.62 0 7 0 C7 17.49 7 34.98 7 53 C4.69 53 2.38 53 0 53 C0 35.51 0 18.02 0 0 Z " fill="#2F3C5C" transform="translate(340,131)"/>
<path d="M0 0 C0 1.98 0 3.96 0 6 C-1.0725 6.226875 -2.145 6.45375 -3.25 6.6875 C-7.41998137 8.14699348 -8.67299718 9.33049555 -11 13 C-11.95168683 15.85506049 -12.1900946 17.90937282 -12.31640625 20.88671875 C-12.35830078 21.82451172 -12.40019531 22.76230469 -12.44335938 23.72851562 C-12.48267578 24.70498047 -12.52199219 25.68144531 -12.5625 26.6875 C-12.60568359 27.67556641 -12.64886719 28.66363281 -12.69335938 29.68164062 C-12.79941654 32.12095546 -12.90147714 34.56037113 -13 37 C-15.31 37 -17.62 37 -20 37 C-20 24.79 -20 12.58 -20 0 C-17.69 0 -15.38 0 -13 0 C-12.67 1.32 -12.34 2.64 -12 4 C-11.401875 3.360625 -10.80375 2.72125 -10.1875 2.0625 C-6.67096189 -1.25309308 -4.47403252 -1.08827818 0 0 Z " fill="#364161" transform="translate(248,147)"/>
<path d="M0 0 C8.63502756 -0.4390692 8.63502756 -0.4390692 13 3 C14.43060128 5.86120256 14.38692581 7.84010585 14 11 C11.61744863 12.9192775 9.72913008 13.83797109 6.75 14.5 C6.1725 14.665 5.595 14.83 5 15 C4.67 15.99 4.34 16.98 4 18 C5.98 18 7.96 18 10 18 C10 17.34 10 16.68 10 16 C13.65851291 13.65855173 16.72830036 13.55034741 21 14 C23.9375 15.6875 23.9375 15.6875 26 18 C26.12890625 20.64453125 26.12890625 20.64453125 26 23 C25.27554688 22.96519531 24.55109375 22.93039063 23.8046875 22.89453125 C17.8703617 22.72837013 14.28492966 23.10587185 9 26 C4.6097561 25.6097561 4.6097561 25.6097561 3 24 C2.75249391 20.53949825 2.61565966 17.07972882 2.4765625 13.61328125 C1.97536744 9.81323672 0.79368301 7.34918047 -1 4 C-0.6875 1.625 -0.6875 1.625 0 0 Z " fill="#DBE0F0" transform="translate(47,121)"/>
<path d="M0 0 C1.65 0 3.3 0 5 0 C5 0.66 5 1.32 5 2 C5.763125 2.12375 6.52625 2.2475 7.3125 2.375 C10 3 10 3 13 5 C14.9896995 5.39013716 16.99019869 5.73202649 19 6 C19 6.33 19 6.66 19 7 C17.02 7 15.04 7 13 7 C12.9071875 8.299375 12.9071875 8.299375 12.8125 9.625 C11.75773272 14.00634099 10.09217359 15.75698868 7 19 C4.6603331 20.16983345 3.16608473 20.1661241 0.5625 20.1875 C-0.61119141 20.20876953 -0.61119141 20.20876953 -1.80859375 20.23046875 C-4 20 -4 20 -7 18 C-8.94154424 18.31565845 -8.94154424 18.31565845 -11 19 C-15.24046399 19.61577695 -19.26557541 20.17134487 -22.94921875 17.68359375 C-26.61627428 13.71464987 -27.78199237 10.34118688 -28 5 C-27.01 5 -26.02 5 -25 5 C-24.566875 6.093125 -24.13375 7.18625 -23.6875 8.3125 C-22.06656511 12.23287275 -22.06656511 12.23287275 -19 15 C-15.6288837 15.8344592 -15.6288837 15.8344592 -12 15 C-8.55060099 12.25738208 -6.38121925 9.27980747 -5.125 5.0625 C-5.08375 4.381875 -5.0425 3.70125 -5 3 C-4.67 4.32 -4.34 5.64 -4 7 C-3.34 7 -2.68 7 -2 7 C-2.66 9.64 -3.32 12.28 -4 15 C-2.56344146 15.08131463 -1.1255517 15.13933559 0.3125 15.1875 C1.11300781 15.22230469 1.91351563 15.25710937 2.73828125 15.29296875 C5.05970424 15.1781049 5.05970424 15.1781049 6.78125 13.6875 C8.59219053 11.18004388 8.20005332 9.00079974 8 6 C5.36 5.01 2.72 4.02 0 3 C0 2.01 0 1.02 0 0 Z " fill="#496ED0" transform="translate(51,178)"/>
<path d="M0 0 C0.33 0 0.66 0 1 0 C2.20382288 16.81530377 2.20382288 16.81530377 -2.0625 22.0625 C-4.73904181 24.4632769 -6.01146376 25.00256946 -9.625 25.8125 C-13.87701549 24.78886664 -15.41070793 23.50315986 -18 20 C-18.8125 16.6875 -18.8125 16.6875 -19 14 C-18.25234375 13.86722656 -17.5046875 13.73445312 -16.734375 13.59765625 C-15.25710937 13.33275391 -15.25710937 13.33275391 -13.75 13.0625 C-12.77546875 12.88847656 -11.8009375 12.71445313 -10.796875 12.53515625 C-9.87390625 12.35855469 -8.9509375 12.18195313 -8 12 C-7.24460937 11.85820312 -6.48921875 11.71640625 -5.7109375 11.5703125 C-3.74853632 11.13765847 -3.74853632 11.13765847 -2.875 8.8125 C-2.58625 7.884375 -2.2975 6.95625 -2 6 C-1.62875 4.906875 -1.2575 3.81375 -0.875 2.6875 C-0.58625 1.800625 -0.2975 0.91375 0 0 Z " fill="#DCE3F4" transform="translate(45,169)"/>
<path d="M0 0 C1.98 0 3.96 0 6 0 C6 11.22 6 22.44 6 34 C4.35 34 2.7 34 1 34 C1 32.68 1 31.36 1 30 C0.34 30 -0.32 30 -1 30 C-0.67 20.1 -0.34 10.2 0 0 Z " fill="#253154" transform="translate(213,148)"/>
<path d="M0 0 C9.57 0 19.14 0 29 0 C27.02 0.99 27.02 0.99 25 2 C22.23826075 3.55790419 19.99926865 5.00069182 17.6875 7.1875 C14.06358122 9.63153825 11.25408859 9.72336729 7 9 C3.41447119 7.36312815 2.20684945 6.31027417 0 3 C0 2.01 0 1.02 0 0 Z " fill="#E2E6F5" transform="translate(155,168)"/>
<path d="M0 0 C2.5 0.25 2.5 0.25 4.5 2.25 C4.2525 3.425625 4.005 4.60125 3.75 5.8125 C3.10005402 10.54410674 4.30872584 13.61208858 7.06640625 17.4609375 C12.25395051 21.27457357 19.30824208 20.43384079 25.5 20.25 C25.5 20.58 25.5 20.91 25.5 21.25 C20.22 21.25 14.94 21.25 9.5 21.25 C9.17 22.57 8.84 23.89 8.5 25.25 C8.108125 24.816875 7.71625 24.38375 7.3125 23.9375 C3.03601643 19.95594633 -0.71309682 18.81734345 -6.5 18.25 C-5.51 16.765 -5.51 16.765 -4.5 15.25 C-0.875 15.0625 -0.875 15.0625 2.5 15.25 C1.84 14.26 1.18 13.27 0.5 12.25 C0.5 10.93 0.5 9.61 0.5 8.25 C-0.82 7.92 -2.14 7.59 -3.5 7.25 C-4.125 4.875 -4.125 4.875 -4.5 2.25 C-2.5 0.25 -2.5 0.25 0 0 Z " fill="#475373" transform="translate(35.5,133.75)"/>
<path d="M0 0 C3.63467079 1.62400184 4.77408696 2.66113044 7 6 C7 6.99 7 7.98 7 9 C0.07 9 -6.86 9 -14 9 C-12.2612317 0.30615852 -8.29958849 -1.24493827 0 0 Z " fill="#D3D8E9" transform="translate(169,153)"/>
<path d="M0 0 C3.84584283 0.02996761 6.34671583 0.16922727 9.375 2.625 C12.86825374 6.56610679 13.8125 8.06551774 13.8125 13.375 C15.483125 13.7771875 15.483125 13.7771875 17.1875 14.1875 C20.8125 15.375 20.8125 15.375 22.8125 18.375 C22.1525 18.375 21.4925 18.375 20.8125 18.375 C20.4825 19.035 20.1525 19.695 19.8125 20.375 C18.8225 19.715 17.8325 19.055 16.8125 18.375 C12.96360517 18.16506028 9.50016192 18.19494818 5.8125 19.375 C5.8125 20.035 5.8125 20.695 5.8125 21.375 C3.8325 21.375 1.8525 21.375 -0.1875 21.375 C0.05859375 19.484375 0.05859375 19.484375 0.8125 17.375 C2.66015625 16.328125 2.66015625 16.328125 4.875 15.625 C5.97521484 15.26148438 5.97521484 15.26148438 7.09765625 14.890625 C7.66355469 14.72046875 8.22945312 14.5503125 8.8125 14.375 C9.16140231 10.31660108 9.16140231 10.31660108 7.75 6.625 C4.94740669 4.81687529 2.03027279 4.1794432 -1.1875 3.375 C-4.1875 2.375 -4.1875 2.375 -6.1875 1.375 C-4.47710219 -0.33539781 -2.33656044 0.08198458 0 0 Z " fill="#4E5872" transform="translate(51.1875,117.625)"/>
<path d="M0 0 C1.3921875 0.2784375 1.3921875 0.2784375 2.8125 0.5625 C6.01343771 1.24123881 6.01343771 1.24123881 9 0 C11.33299825 -0.03954234 13.66708189 -0.04401732 16 0 C13.66785852 1.20628008 11.50357861 2.1654738 9 3 C9.55565073 6.49034184 9.55565073 6.49034184 11.03125 9.65625 C12.46553738 13.12630011 12.20972324 16.56128029 12.125 20.25 C12.11597656 20.99507812 12.10695313 21.74015625 12.09765625 22.5078125 C12.07418358 24.33868059 12.03831525 26.16938238 12 28 C11.01 27.67 10.02 27.34 9 27 C8.90203125 25.90300781 8.8040625 24.80601562 8.703125 23.67578125 C8.552981 22.22126122 8.40188917 20.76683882 8.25 19.3125 C8.188125 18.59126953 8.12625 17.87003906 8.0625 17.12695312 C7.30105103 10.1787313 3.94704102 6.77036099 -1 2 C-0.67 1.34 -0.34 0.68 0 0 Z " fill="#3F4866" transform="translate(38,119)"/>
<path d="M0 0 C1.99954746 -0.04254356 4.00041636 -0.04080783 6 0 C6.33 0.33 6.66 0.66 7 1 C6.71269945 3.33944736 6.38063221 5.6739143 6 8 C3.625 8.1875 3.625 8.1875 1 8 C0.34 7.01 -0.32 6.02 -1 5 C-3.55685028 4.48306529 -3.55685028 4.48306529 -6.4375 4.5625 C-7.40558594 4.54316406 -8.37367187 4.52382812 -9.37109375 4.50390625 C-12.10517043 4.75550525 -12.10517043 4.75550525 -13.7421875 6.82421875 C-15.28592435 9.49459584 -16.67160305 12.21669211 -18 15 C-19.15941038 11.52176885 -18.70820884 9.54104422 -18 6 C-17.34 6 -16.68 6 -16 6 C-16 4.68 -16 3.36 -16 2 C-10.72 2 -5.44 2 0 2 C0 1.34 0 0.68 0 0 Z " fill="#2C3856" transform="translate(61,153)"/>
<path d="M0 0 C1.65 0 3.3 0 5 0 C5 0.66 5 1.32 5 2 C5.763125 2.12375 6.52625 2.2475 7.3125 2.375 C10 3 10 3 13 5 C14.9896995 5.39013716 16.99019869 5.73202649 19 6 C19 6.33 19 6.66 19 7 C17.02 7 15.04 7 13 7 C12.9071875 8.299375 12.9071875 8.299375 12.8125 9.625 C11.75773272 14.00634099 10.09217359 15.75698868 7 19 C4.59454362 20.20272819 3.05003047 20.10071472 0.375 20.0625 C-0.85089844 20.04896484 -0.85089844 20.04896484 -2.1015625 20.03515625 C-2.72804687 20.02355469 -3.35453125 20.01195312 -4 20 C-4 19.67 -4 19.34 -4 19 C-1.36 19 1.28 19 4 19 C4 18.34 4 17.68 4 17 C1.36 17 -1.28 17 -4 17 C-4 16.67 -4 16.34 -4 16 C-3.38511719 15.96261719 -2.77023438 15.92523438 -2.13671875 15.88671875 C-1.32847656 15.82097656 -0.52023438 15.75523437 0.3125 15.6875 C1.11300781 15.62949219 1.91351563 15.57148438 2.73828125 15.51171875 C5.4170136 14.90564977 6.38258968 14.19801915 8 12 C8.25048636 8.87450983 8.25048636 8.87450983 8 6 C5.36 5.01 2.72 4.02 0 3 C0 2.01 0 1.02 0 0 Z " fill="#577BD3" transform="translate(51,178)"/>
<path d="M0 0 C0.33 0 0.66 0 1 0 C1.1875 2.375 1.1875 2.375 1 5 C-2.16413005 7.10942004 -3.22453304 7.25442187 -6.875 7.4375 C-11.0804392 7.76709901 -13.45036318 8.66738152 -17 11 C-19.625 11.4375 -19.625 11.4375 -22 11 C-23.8125 9 -23.8125 9 -25 7 C-24.34 7 -23.68 7 -23 7 C-22.67 6.34 -22.34 5.68 -22 5 C-21.29875 5.226875 -20.5975 5.45375 -19.875 5.6875 C-16.92001883 6.28222158 -16.92001883 6.28222158 -14.3125 4.5625 C-9.8158652 2.44144585 -5.88819522 2.73916745 -1 3 C-0.67 2.01 -0.34 1.02 0 0 Z " fill="#626B85" transform="translate(73,140)"/>
<path d="M0 0 C0.99 0.33 1.98 0.66 3 1 C3 1.99 3 2.98 3 4 C-2.23124813 7.30394619 -6.97150471 7.90720075 -13 7 C-15.53369599 5.93344418 -16.91213153 4.86809284 -19 3 C-19 2.34 -19 1.68 -19 1 C-17.19402344 1.14308594 -17.19402344 1.14308594 -15.3515625 1.2890625 C-13.77608123 1.40159688 -12.20055805 1.51354573 -10.625 1.625 C-9.8309375 1.68945312 -9.036875 1.75390625 -8.21875 1.8203125 C-6.14971776 1.96058587 -4.07374464 1.98758237 -2 2 C-1.34 1.34 -0.68 0.68 0 0 Z " fill="#4B5470" transform="translate(33,163)"/>
<path d="M0 0 C0.20625 1.299375 0.4125 2.59875 0.625 3.9375 C1.82185711 9.48176455 4.63191029 13.51980519 8 18 C7.01 18.33 6.02 18.66 5 19 C4.01 18.34 3.02 17.68 2 17 C1.01 19.475 1.01 19.475 0 22 C-0.33 22 -0.66 22 -1 22 C-0.97679687 21.33613281 -0.95359375 20.67226562 -0.9296875 19.98828125 C-0.82924954 15.07399544 -0.98341209 11.5373228 -3 7 C-3.125 3.6875 -3.125 3.6875 -3 1 C-1 0 -1 0 0 0 Z " fill="#38425D" transform="translate(8,146)"/>
<path d="M0 0 C3.81088479 2.77155257 4.01507017 6.63816788 5 11 C6.73605513 12.73605513 9.20549496 12.65611982 11.5625 13.0625 C13.08037109 13.32740234 13.08037109 13.32740234 14.62890625 13.59765625 C15.41136719 13.73042969 16.19382812 13.86320313 17 14 C17 14.33 17 14.66 17 15 C15.35 15.33 13.7 15.66 12 16 C13.32 16.66 14.64 17.32 16 18 C10.83180302 17.56201721 7.26460094 17.16798927 3 14 C2.4225 13.608125 1.845 13.21625 1.25 12.8125 C-0.77091584 9.88217203 -0.97167786 6.51194575 -1 3 C-0.67 2.01 -0.34 1.02 0 0 Z " fill="#5E6781" transform="translate(6,164)"/>
<path d="M0 0 C0.33 0 0.66 0 1 0 C1 1.98 1 3.96 1 6 C4.04386724 6.08226668 6.07175348 5.97608217 9 5 C10.32 6.32 11.64 7.64 13 9 C12.34 9 11.68 9 11 9 C10.67 9.66 10.34 10.32 10 11 C9.01 10.34 8.02 9.68 7 9 C3.15110517 8.79006028 -0.31233808 8.81994818 -4 10 C-4 10.66 -4 11.32 -4 12 C-5.98 12 -7.96 12 -10 12 C-9.75 10.08984375 -9.75 10.08984375 -9 8 C-7.1875 7.12890625 -7.1875 7.12890625 -5 6.5625 C-2.84024857 5.92113612 -2.84024857 5.92113612 -1 5 C0.13440778 2.42919865 0.13440778 2.42919865 0 0 Z " fill="#515E7E" transform="translate(61,127)"/>
<path d="M0 0 C0.99 0 1.98 0 3 0 C5.06346374 3.30154198 5.32723091 6.31628665 5.71484375 10.09375 C6.05187963 12.34681175 6.79508673 14.07213877 8 16 C7.34 16 6.68 16 6 16 C6 17.98 6 19.96 6 22 C5.67 22 5.34 22 5 22 C4.87044922 20.95199219 4.87044922 20.95199219 4.73828125 19.8828125 C4.31795176 17.16031137 3.86256547 14.61803791 3 12 C0.54251602 10.24431996 0.54251602 10.24431996 -2 10 C-0.68 9.67 0.64 9.34 2 9 C1.34 6.03 0.68 3.06 0 0 Z " fill="#3C4661" transform="translate(72,136)"/>
<path d="M0 0 C2.5 0.25 2.5 0.25 4.5 2.25 C4.1730244 4.86580479 3.67960932 6.89078137 2.5 9.25 C0.52 8.59 -1.46 7.93 -3.5 7.25 C-4.125 4.875 -4.125 4.875 -4.5 2.25 C-2.5 0.25 -2.5 0.25 0 0 Z " fill="#4684CD" transform="translate(35.5,133.75)"/>
<path d="M0 0 C0.33 1.32 0.66 2.64 1 4 C1.66 4 2.32 4 3 4 C2.855625 4.55429688 2.71125 5.10859375 2.5625 5.6796875 C2.376875 6.40414062 2.19125 7.12859375 2 7.875 C1.814375 8.59429687 1.62875 9.31359375 1.4375 10.0546875 C0.92686035 11.99289317 0.92686035 11.99289317 1 14 C3.64 14 6.28 14 9 14 C9 14.66 9 15.32 9 16 C7.54176788 16.0270043 6.08339325 16.04639787 4.625 16.0625 C3.81289063 16.07410156 3.00078125 16.08570313 2.1640625 16.09765625 C0 16 0 16 -2 15 C-2 14.34 -2 13.68 -2 13 C-2.99 12.67 -3.98 12.34 -5 12 C-4.319375 10.9790625 -4.319375 10.9790625 -3.625 9.9375 C-1.83163514 6.69564814 -0.91246131 3.5796559 0 0 Z " fill="#4067D6" transform="translate(46,181)"/>
<path d="M0 0 C0.99 0 1.98 0 3 0 C3.02689449 2.95839355 3.04678741 5.91654427 3.0625 8.875 C3.07087891 9.71675781 3.07925781 10.55851563 3.08789062 11.42578125 C3.09111328 12.23144531 3.09433594 13.03710938 3.09765625 13.8671875 C3.10289307 14.61081543 3.10812988 15.35444336 3.11352539 16.12060547 C3 18 3 18 2 20 C1.34 20 0.68 20 0 20 C0 13.4 0 6.8 0 0 Z " fill="#2C3E6B" transform="translate(47,165)"/>
<path d="M0 0 C9.57 0 19.14 0 29 0 C26.01193893 1.49403054 23.10343799 2.79310745 20 4 C20 3.34 20 2.68 20 2 C13.4 2.33 6.8 2.66 0 3 C0 2.01 0 1.02 0 0 Z " fill="#C5CBDD" transform="translate(155,168)"/>
<path d="M0 0 C4.29 0 8.58 0 13 0 C12.67 1.32 12.34 2.64 12 4 C5.565 4.495 5.565 4.495 -1 5 C-0.67 3.35 -0.34 1.7 0 0 Z " fill="#5C647E" transform="translate(25,118)"/>
<path d="M0 0 C0.98484375 0.04511719 1.9696875 0.09023437 2.984375 0.13671875 C4.10585938 0.22373047 4.10585938 0.22373047 5.25 0.3125 C5.25 0.6425 5.25 0.9725 5.25 1.3125 C4.53972656 1.36148438 3.82945313 1.41046875 3.09765625 1.4609375 C1.71900391 1.57308594 1.71900391 1.57308594 0.3125 1.6875 C-0.60402344 1.75710937 -1.52054688 1.82671875 -2.46484375 1.8984375 C-3.21894531 2.03507813 -3.97304688 2.17171875 -4.75 2.3125 C-5.08 2.9725 -5.41 3.6325 -5.75 4.3125 C-4.1 4.3125 -2.45 4.3125 -0.75 4.3125 C-0.75 4.6425 -0.75 4.9725 -0.75 5.3125 C-1.554375 5.43625 -2.35875 5.56 -3.1875 5.6875 C-4.4559375 5.996875 -4.4559375 5.996875 -5.75 6.3125 C-7.335869 9.484238 -7.12866445 12.94763822 -7.3125 16.4375 C-7.35568359 17.19160156 -7.39886719 17.94570312 -7.44335938 18.72265625 C-7.5494832 20.58571888 -7.65025001 22.44908524 -7.75 24.3125 C-8.08 24.3125 -8.41 24.3125 -8.75 24.3125 C-9.02646774 21.25031928 -9.27190671 18.1908422 -9.5 15.125 C-9.58121094 14.26068359 -9.66242187 13.39636719 -9.74609375 12.50585938 C-10.03268495 8.35028691 -10.09640251 5.97199709 -8.125 2.21875 C-5.1751226 -0.14891475 -3.73315972 -0.22221189 0 0 Z " fill="#B7BFD5" transform="translate(54.75,156.6875)"/>
<path d="M0 0 C1.65 0 3.3 0 5 0 C5 0.66 5 1.32 5 2 C5.763125 2.12375 6.52625 2.2475 7.3125 2.375 C10 3 10 3 13 5 C14.9896995 5.39013716 16.99019869 5.73202649 19 6 C19 6.33 19 6.66 19 7 C17.02 7 15.04 7 13 7 C13 7.99 13 8.98 13 10 C12.01 10 11.02 10 10 10 C9.835 9.401875 9.67 8.80375 9.5 8.1875 C7.18723796 4.81472202 3.80108663 4.1668452 0 3 C0 2.01 0 1.02 0 0 Z " fill="#4E70CE" transform="translate(51,178)"/>
<path d="M0 0 C0 0.66 0 1.32 0 2 C0.66 2 1.32 2 2 2 C2 2.66 2 3.32 2 4 C-1.31114834 5.12880057 -4.58978257 6.21302675 -8 7 C-8 9.31 -8 11.62 -8 14 C-8.33 14 -8.66 14 -9 14 C-9.54372951 10.94152152 -10 8.11227195 -10 5 C-7.00859705 1.36758214 -4.6710483 0 0 0 Z " fill="#58637D" transform="translate(17,139)"/>
<path d="M0 0 C0.66 0 1.32 0 2 0 C1.125 4.75 1.125 4.75 0 7 C-0.23235944 9.26765601 -0.38101703 11.53361414 -0.5234375 13.80859375 C-1.08682547 16.39925484 -1.99145857 17.32979577 -4 19 C-4.68855157 6.10878444 -4.68855157 6.10878444 -2.125 2.1875 C-1.42375 1.465625 -0.7225 0.74375 0 0 Z " fill="#3A4561" transform="translate(22,120)"/>
<path d="M0 0 C0.68707555 2.49064888 1 4.37886292 1 7 C0.236875 7.28875 -0.52625 7.5775 -1.3125 7.875 C-4.15029308 8.96269013 -4.15029308 8.96269013 -7 11 C-9.26171875 11.1953125 -9.26171875 11.1953125 -11.6875 11.125 C-12.49574219 11.10695312 -13.30398437 11.08890625 -14.13671875 11.0703125 C-15.05904297 11.03550781 -15.05904297 11.03550781 -16 11 C-16.33 10.34 -16.66 9.68 -17 9 C-14.69 9.33 -12.38 9.66 -10 10 C-10 9.34 -10 8.68 -10 8 C-8.68 7.67 -7.36 7.34 -6 7 C-6 6.34 -6 5.68 -6 5 C-5.38125 4.731875 -4.7625 4.46375 -4.125 4.1875 C-1.7004767 3.04443152 -1.7004767 3.04443152 0 0 Z " fill="#57617B" transform="translate(75,162)"/>
<path d="M0 0 C0.99 0.33 1.98 0.66 3 1 C3 6.28 3 11.56 3 17 C2.01 16.67 1.02 16.34 0 16 C0 10.72 0 5.44 0 0 Z " fill="#2B3654" transform="translate(47,130)"/>
<path d="M0 0 C6.5705166 -0.24794402 12.56971459 0.67611771 19 2 C18.67 2.66 18.34 3.32 18 4 C11.18401613 4.33278764 6.07877934 4.24201565 0 1 C0 0.67 0 0.34 0 0 Z " fill="#384569" transform="translate(16,179)"/>
<path d="M0 0 C0.99 0.33 1.98 0.66 3 1 C3 1.66 3 2.32 3 3 C2.01 3.495 2.01 3.495 1 4 C0.53476937 5.89533342 0.53476937 5.89533342 0.375 8.0625 C0.25125 9.361875 0.1275 10.66125 0 12 C0.99 12.33 1.98 12.66 3 13 C2.01 13 1.02 13 0 13 C0 13.99 0 14.98 0 16 C1.98 16.33 3.96 16.66 6 17 C6 17.33 6 17.66 6 18 C3.69 18 1.38 18 -1 18 C-1.02684312 15.18743719 -1.04676188 12.37512759 -1.0625 9.5625 C-1.07087891 8.76005859 -1.07925781 7.95761719 -1.08789062 7.13085938 C-1.0965143 5.08704779 -1.0522815 3.04316098 -1 1 C-0.67 0.67 -0.34 0.34 0 0 Z " fill="#B9C9E6" transform="translate(51,165)"/>
<path d="M0 0 C2.97 0.33 5.94 0.66 9 1 C9 1.33 9 1.66 9 2 C7.3603125 2.4021875 7.3603125 2.4021875 5.6875 2.8125 C2.21307994 3.93138104 1.30547678 4.46397554 -1 7 C-1.99 7 -2.98 7 -4 7 C-3.67 5.68 -3.34 4.36 -3 3 C-2.01 3 -1.02 3 0 3 C0 2.01 0 1.02 0 0 Z " fill="#374160" transform="translate(25,149)"/>
<path d="M0 0 C0 0.33 0 0.66 0 1 C-1.26457031 1.03867188 -1.26457031 1.03867188 -2.5546875 1.078125 C-3.65039062 1.13484375 -4.74609375 1.1915625 -5.875 1.25 C-6.96554687 1.29640625 -8.05609375 1.3428125 -9.1796875 1.390625 C-10.57574219 1.69226563 -10.57574219 1.69226563 -12 2 C-13.31148456 3.91404109 -13.31148456 3.91404109 -14 6 C-16.0625 7.125 -16.0625 7.125 -18 8 C-18.33 8.66 -18.66 9.32 -19 10 C-19.66 9.67 -20.32 9.34 -21 9 C-14.99410292 1.05101857 -9.82439345 -0.52422653 0 0 Z " fill="#676E88" transform="translate(418,146)"/>
<path d="M0 0 C0.99 0.33 1.98 0.66 3 1 C3 1.99 3 2.98 3 4 C1.02 4.66 -0.96 5.32 -3 6 C-3 5.67 -3 5.34 -3 5 C-3.62648438 4.95101562 -4.25296875 4.90203125 -4.8984375 4.8515625 C-5.71570312 4.77679688 -6.53296875 4.70203125 -7.375 4.625 C-8.59316406 4.52058594 -8.59316406 4.52058594 -9.8359375 4.4140625 C-12 4 -12 4 -14 2 C-12.73542969 2.03480469 -12.73542969 2.03480469 -11.4453125 2.0703125 C-10.34960938 2.08835938 -9.25390625 2.10640625 -8.125 2.125 C-7.03445312 2.14820313 -5.94390625 2.17140625 -4.8203125 2.1953125 C-1.8628949 2.30060534 -1.8628949 2.30060534 0 0 Z " fill="#57698D" transform="translate(33,163)"/>
<path d="M0 0 C3.3 0.33 6.6 0.66 10 1 C10.33 1.99 10.66 2.98 11 4 C5.72 4 0.44 4 -5 4 C-5 3.67 -5 3.34 -5 3 C-3.35 2.67 -1.7 2.34 0 2 C0 1.34 0 0.68 0 0 Z " fill="#CFD3E6" transform="translate(50,150)"/>
<path d="M0 0 C1.65 0.33 3.3 0.66 5 1 C4.67 2.65 4.34 4.3 4 6 C2.35 5.67 0.7 5.34 -1 5 C-0.67 3.35 -0.34 1.7 0 0 Z " fill="#E51A1A" transform="translate(513,1)"/>
<path d="M0 0 C0.33 0.66 0.66 1.32 1 2 C0.27554687 1.91878906 -0.44890625 1.83757812 -1.1953125 1.75390625 C-6.9838267 1.23486565 -6.9838267 1.23486565 -12.06640625 3.55859375 C-13.52961293 5.31091597 -14.81955587 7.04753546 -16 9 C-16.33 8.34 -16.66 7.68 -17 7 C-12.53193556 -0.39021629 -8.31224638 -0.93179986 0 0 Z " fill="#B9C0D3" transform="translate(377,153)"/>
<path d="M0 0 C1.32 0.33 2.64 0.66 4 1 C3.50628906 1.42410156 3.01257813 1.84820312 2.50390625 2.28515625 C-2.04038583 6.34278269 -2.04038583 6.34278269 -3.9375 11.9375 C-3.958125 12.948125 -3.97875 13.95875 -4 15 C-4.33 15 -4.66 15 -5 15 C-5.60709557 8.07911053 -4.44071801 5.32886161 0 0 Z " fill="#BFC7DA" transform="translate(261,154)"/>
<path d="M0 0 C0.99 0 1.98 0 3 0 C2.88648483 1.81325551 2.75887039 3.62563357 2.625 5.4375 C2.55539063 6.44683594 2.48578125 7.45617187 2.4140625 8.49609375 C2.27742188 9.32238281 2.14078125 10.14867187 2 11 C1.01 11.495 1.01 11.495 0 12 C0 8.04 0 4.08 0 0 Z " fill="#2B3856" transform="translate(47,165)"/>
<path d="M0 0 C0.66 0.99 1.32 1.98 2 3 C0 5 0 5 -2.1640625 5.1953125 C-3.38222656 5.16050781 -3.38222656 5.16050781 -4.625 5.125 C-5.44226563 5.10695312 -6.25953125 5.08890625 -7.1015625 5.0703125 C-7.72804688 5.04710937 -8.35453125 5.02390625 -9 5 C-9.33 4.34 -9.66 3.68 -10 3 C-9.04287109 2.80083984 -9.04287109 2.80083984 -8.06640625 2.59765625 C-7.24011719 2.42105469 -6.41382812 2.24445313 -5.5625 2.0625 C-4.73878906 1.88847656 -3.91507812 1.71445313 -3.06640625 1.53515625 C-1.02338796 1.19247006 -1.02338796 1.19247006 0 0 Z " fill="#3E4A6B" transform="translate(73,179)"/>
<path d="M0 0 C0 0.66 0 1.32 0 2 C-1.2375 2.28875 -2.475 2.5775 -3.75 2.875 C-6.20255755 3.47086785 -8.03087291 4.01715162 -10.25 5.25 C-12 6 -12 6 -14.25 5.125 C-14.8275 4.75375 -15.405 4.3825 -16 4 C-14.35 4 -12.7 4 -11 4 C-11 3.34 -11 2.68 -11 2 C-7.17679443 0.57741188 -4.08718695 -0.24042276 0 0 Z " fill="#374160" transform="translate(69,144)"/>
<path d="M0 0 C1.32 0 2.64 0 4 0 C4.33 1.98 4.66 3.96 5 6 C3.35 6 1.7 6 0 6 C-1.24546405 3.50907189 -0.7767578 2.58919267 0 0 Z " fill="#3A8278" transform="translate(62,155)"/>
<path d="M0 0 C1.99954746 -0.04254356 4.00041636 -0.04080783 6 0 C7 1 7 1 7.0625 3.5625 C7.041875 4.366875 7.02125 5.17125 7 6 C6.34 6 5.68 6 5 6 C5 4.68 5 3.36 5 2 C3.68 2 2.36 2 1 2 C0.67 3.32 0.34 4.64 0 6 C-1 3 -1 3 0 0 Z " fill="#23465F" transform="translate(61,153)"/>
<path d="M0 0 C2.52588702 2.36292656 3.88820837 3.66462511 5 7 C4.34 7 3.68 7 3 7 C3 7.99 3 8.98 3 10 C-0.28754075 8.35622962 -0.87685524 5.36943428 -2 2 C-1.34 2 -0.68 2 0 2 C0 1.34 0 0.68 0 0 Z " fill="#414C66" transform="translate(22,142)"/>
<path d="M0 0 C3.63 0 7.26 0 11 0 C11 0.99 11 1.98 11 3 C8.59454362 4.20272819 7.05003047 4.10071472 4.375 4.0625 C3.14910156 4.04896484 3.14910156 4.04896484 1.8984375 4.03515625 C0.95871094 4.01775391 0.95871094 4.01775391 0 4 C0 3.67 0 3.34 0 3 C2.64 3 5.28 3 8 3 C8 2.34 8 1.68 8 1 C5.36 1 2.72 1 0 1 C0 0.67 0 0.34 0 0 Z " fill="#7590DE" transform="translate(47,194)"/>
<path d="M0 0 C0 0.99 0 1.98 0 3 C-0.33 3.33 -0.66 3.66 -1 4 C-0.34 4.66 0.32 5.32 1 6 C-2.21182149 7.90608098 -4.53882603 8.22266247 -8.25 8.125 C-9.14203125 8.10695312 -10.0340625 8.08890625 -10.953125 8.0703125 C-11.96632813 8.03550781 -11.96632813 8.03550781 -13 8 C-13 7.67 -13 7.34 -13 7 C-10.03 7 -7.06 7 -4 7 C-3.67 5.68 -3.34 4.36 -3 3 C-1.4375 1.25 -1.4375 1.25 0 0 Z " fill="#6282D6" transform="translate(43,189)"/>
<path d="M0 0 C0.90105469 0.02707031 1.80210937 0.05414063 2.73046875 0.08203125 C3.76107422 0.13423828 3.76107422 0.13423828 4.8125 0.1875 C4.8125 0.5175 4.8125 0.8475 4.8125 1.1875 C1.8425 1.1875 -1.1275 1.1875 -4.1875 1.1875 C-4.8475 2.5075 -5.5075 3.8275 -6.1875 5.1875 C-8.3125 6.4375 -8.3125 6.4375 -10.1875 7.1875 C-7.8051174 1.87295421 -6.01707121 -0.23443135 0 0 Z " fill="#BCC1D6" transform="translate(413.1875,152.8125)"/>
<path d="M0 0 C0.66 0.33 1.32 0.66 2 1 C-0.97 4.63 -3.94 8.26 -7 12 C-7.33 11.34 -7.66 10.68 -8 10 C-7.04367001 8.70684939 -6.08486149 7.41553147 -5.125 6.125 C-4.59132812 5.40570313 -4.05765625 4.68640625 -3.5078125 3.9453125 C-2 2 -2 2 0 0 Z " fill="#4B5571" transform="translate(258,148)"/>
<path d="M0 0 C3.41021743 0.78697325 6.68885166 1.87119943 10 3 C10 3.66 10 4.32 10 5 C4.5388601 4.64766839 4.5388601 4.64766839 2 4 C0.5 1.9375 0.5 1.9375 0 0 Z " fill="#343A59" transform="translate(55,167)"/>
<path d="M0 0 C0.99 0 1.98 0 3 0 C3.33 2.64 3.66 5.28 4 8 C3.01 7.67 2.02 7.34 1 7 C0.67 4.69 0.34 2.38 0 0 Z " fill="#4064C7" transform="translate(23,183)"/>
<path d="M0 0 C0.70125 0.144375 1.4025 0.28875 2.125 0.4375 C1.23554688 0.82035156 1.23554688 0.82035156 0.328125 1.2109375 C-2.08724538 2.55566498 -3.38711706 3.92964367 -5.125 6.0625 C-5.64578125 6.69414062 -6.1665625 7.32578125 -6.703125 7.9765625 C-7.08984375 8.45867187 -7.4765625 8.94078125 -7.875 9.4375 C-8.205 8.7775 -8.535 8.1175 -8.875 7.4375 C-3.7809081 0.57535558 -3.7809081 0.57535558 0 0 Z " fill="#ACB3C7" transform="translate(244.875,152.5625)"/>
<path d="M0 0 C2.31 1.98 4.62 3.96 7 6 C6.01 6.33 5.02 6.66 4 7 C1.3125 5.5625 1.3125 5.5625 -1 4 C-0.67 2.68 -0.34 1.36 0 0 Z " fill="#333C59" transform="translate(8,172)"/>
<path d="M0 0 C0.33 1.32 0.66 2.64 1 4 C1.66 4 2.32 4 3 4 C2.34 5.98 1.68 7.96 1 10 C0.01 9.67 -0.98 9.34 -2 9 C-1.34 6.03 -0.68 3.06 0 0 Z " fill="#4B66B2" transform="translate(46,181)"/>
<path d="M0 0 C2.97 0.33 5.94 0.66 9 1 C9 1.33 9 1.66 9 2 C7.02 2 5.04 2 3 2 C3 2.99 3 3.98 3 5 C2.01 5 1.02 5 0 5 C0 3.35 0 1.7 0 0 Z " fill="#4563B8" transform="translate(61,183)"/>
<path d="M0 0 C0.33 0 0.66 0 1 0 C1.1953125 6.0546875 1.1953125 6.0546875 1 8 C0.34 8.66 -0.32 9.32 -1 10 C-2.25 3.375 -2.25 3.375 0 0 Z " fill="#48536F" transform="translate(44,165)"/>
<path d="M0 0 C2.31 0 4.62 0 7 0 C7 0.66 7 1.32 7 2 C5.35 2 3.7 2 2 2 C1.67 3.32 1.34 4.64 1 6 C0.67 4.02 0.34 2.04 0 0 Z " fill="#C1CDE9" transform="translate(26,183)"/>
<path d="M0 0 C0 0.33 0 0.66 0 1 C-3.64793184 2.27253436 -7.1936543 3.32829194 -11 4 C-11 3.34 -11 2.68 -11 2 C-7.36576791 -0.32590854 -4.22911669 -0.16265833 0 0 Z " fill="#C1C9DD" transform="translate(68,135)"/>
<path d="M0 0 C2 3 2 3 2 5 C3.65 5.33 5.3 5.66 7 6 C7 6.33 7 6.66 7 7 C4.36 7 1.72 7 -1 7 C-0.67 4.69 -0.34 2.38 0 0 Z " fill="#222F4D" transform="translate(62,127)"/>
<path d="M0 0 C0.99 1.32 1.98 2.64 3 4 C1.02013918 3.88652381 -0.95891598 3.7589065 -2.9375 3.625 C-4.03964844 3.55539063 -5.14179688 3.48578125 -6.27734375 3.4140625 C-7.17582031 3.27742187 -8.07429688 3.14078125 -9 3 C-9.33 2.34 -9.66 1.68 -10 1 C-6.7 1.33 -3.4 1.66 0 2 C0 1.34 0 0.68 0 0 Z " fill="#ACB2C6" transform="translate(36,146)"/>
<path d="M0 0 C0.33 0.99 0.66 1.98 1 3 C-0.125 4.5 -0.125 4.5 -2 6 C-5.1875 6.1875 -5.1875 6.1875 -8 6 C-5 4 -5 4 -2.875 3.5625 C-1.946875 3.2840625 -1.946875 3.2840625 -1 3 C-0.67 2.01 -0.34 1.02 0 0 Z " fill="#BAC1D4" transform="translate(42,177)"/>
<path d="M0 0 C0.66 0.33 1.32 0.66 2 1 C0.35 2.98 -1.3 4.96 -3 7 C-3.66 6.67 -4.32 6.34 -5 6 C-3.35 4.02 -1.7 2.04 0 0 Z " fill="#49566F" transform="translate(360,149)"/>
</svg>
